<?xml version="1.0" standalone="no"?>
<!DOCTYPE svg PUBLIC "-//W3C//DTD SVG 20010904//EN"
 "http://www.w3.org/TR/2001/REC-SVG-20010904/DTD/svg10.dtd">
<svg version="1.0" xmlns="http://www.w3.org/2000/svg"
 width="300.000000pt" height="300.000000pt" viewBox="0 0 300.000000 300.000000"
 preserveAspectRatio="xMidYMid meet">

<g transform="translate(0.000000,300.000000) scale(0.100000,-0.100000)"
fill="#000000" stroke="none">
<path d="M1309 2840 c-228 -29 -457 -115 -593 -223 -29 -23 -79 -62 -110 -86
-86 -68 -195 -186 -260 -284 -67 -100 -141 -258 -156 -332 -34 -168 -42 -222
-47 -330 -3 -67 0 -161 6 -211 13 -105 52 -237 79 -268 10 -12 27 -40 37 -64
27 -63 27 -46 -1 38 -31 92 -54 208 -53 263 0 33 2 38 9 22 5 -12 9 33 9 122
1 83 5 144 11 148 6 4 10 -33 10 -105 0 -131 20 -240 60 -318 15 -32 40 -86
55 -121 34 -82 85 -162 145 -228 26 -28 57 -73 70 -100 12 -26 41 -75 65 -108
45 -64 197 -210 268 -258 227 -154 571 -235 830 -196 508 76 918 415 1070 884
56 171 62 216 62 435 -1 178 -4 217 -23 295 -33 129 -81 260 -102 275 -4 3
-19 28 -33 56 -117 232 -340 451 -567 557 -220 103 -611 167 -841 137z m461
-330 c9 -12 40 -27 75 -36 71 -19 226 -90 287 -132 88 -60 207 -198 248 -286
11 -23 28 -54 40 -71 11 -16 20 -41 20 -55 0 -13 11 -58 24 -100 55 -167 58
-186 57 -323 -1 -174 -15 -245 -74 -362 -19 -38 -53 -95 -76 -125 -22 -30 -41
-58 -41 -63 0 -5 -14 -25 -31 -44 -16 -19 -27 -38 -24 -41 4 -4 11 1 16 11 6
9 16 17 23 17 8 0 19 7 26 15 24 29 35 -1 11 -31 -43 -55 -19 -47 34 11 54 60
75 65 33 7 -13 -16 -36 -49 -53 -72 -79 -109 -227 -219 -345 -255 -14 -4 -31
-13 -39 -19 -15 -12 -123 -44 -181 -53 -19 -3 -41 -10 -48 -16 -7 -5 -47 -12
-90 -14 -42 -3 -84 -7 -92 -10 -36 -13 -293 18 -315 38 -5 5 -19 9 -31 9 -13
0 -25 4 -29 9 -3 5 -18 12 -34 16 -15 3 -37 14 -47 23 -11 9 -37 26 -57 36
-21 11 -64 45 -95 75 -31 31 -70 64 -85 74 -30 19 -50 16 -29 -5 17 -17 15
-48 -3 -48 -8 0 -15 7 -15 15 0 8 -9 19 -19 25 -30 16 -35 12 -17 -15 9 -14
12 -25 7 -25 -17 0 -71 51 -71 67 0 8 -23 35 -51 61 -36 32 -49 51 -46 64 3
11 -4 28 -18 42 -13 13 -28 43 -34 67 -6 24 -20 67 -31 94 -11 28 -20 62 -20
76 0 34 -20 139 -31 164 -4 11 -10 38 -11 60 l-3 40 -15 -32 c-8 -18 -18 -33
-21 -33 -10 0 -19 69 -19 151 0 60 4 80 19 98 11 12 24 51 30 89 7 37 23 103
38 147 49 152 168 352 207 349 10 -1 40 26 73 67 30 38 60 70 67 71 6 0 16 2
23 2 6 1 22 11 35 22 30 28 89 59 106 55 8 -1 19 4 25 12 26 32 169 77 305 96
35 5 66 12 69 15 3 3 78 4 166 1 149 -3 162 -5 177 -25z m706 -1518 c-18 -16
-18 -16 -6 6 6 13 14 21 18 18 3 -4 -2 -14 -12 -24z m-1540 -423 c27 -22 104
-67 172 -101 123 -61 140 -72 124 -82 -24 -15 -144 39 -274 123 -85 55 -104
74 -92 92 9 15 20 10 70 -32z"/>
<path d="M491 1484 c0 -11 3 -14 6 -6 3 7 2 16 -1 19 -3 4 -6 -2 -5 -13z"/>
<path d="M777 839 c12 -12 25 -20 28 -17 3 3 -7 13 -22 23 l-28 17 22 -23z"/>
<path d="M2240 852 c0 -5 -9 -18 -20 -30 -12 -12 -16 -22 -11 -22 5 0 19 14
31 30 12 17 17 30 11 30 -6 0 -11 -4 -11 -8z"/>
<path d="M2284 808 l-19 -23 23 19 c12 11 22 21 22 23 0 8 -8 2 -26 -19z"/>
<path d="M730 809 c0 -16 37 -56 45 -48 2 3 -7 18 -20 34 -17 21 -24 25 -25
14z"/>
<path d="M810 791 c0 -5 7 -11 14 -14 10 -4 13 -1 9 9 -6 15 -23 19 -23 5z"/>
</g>
</svg>
